<svg width="592" height="112" viewBox="0 0 592 112" fill="none" xmlns="http://www.w3.org/2000/svg">
<path d="M132.813 14.5903H111.632L105.794 5.36116C103.67 2.00158 100.028 0 96.0503 0H46.9632C42.9922 0 39.3495 2.00158 37.2256 5.36116L31.3882 14.5903H10.2074C4.58884 14.5903 0.0193071 19.1599 0.0193071 24.7785V57.7435C0.0193071 57.7435 0.00643596 57.7499 0 57.7499L0.0193071 57.7949V83.0818C2.09812 81.7367 4.56954 80.9451 7.22759 80.9451C14.5903 80.9451 20.5822 86.937 20.5822 94.3062H20.608C21.0842 104.121 29.2193 111.96 39.1564 111.96C49.0935 111.96 57.2286 104.121 57.7048 94.3062H57.7242C57.7242 86.937 63.716 80.9451 71.0852 80.9451C78.4544 80.9451 84.4398 86.937 84.4398 94.3062H84.4591C84.9418 104.121 93.0769 111.96 103.008 111.96C112.938 111.96 121.08 104.121 121.556 94.3062H121.582C121.582 86.937 127.574 80.9451 134.936 80.9451C137.968 80.9451 140.761 81.9749 143.001 83.6804V24.7785C143.001 19.1599 138.431 14.5903 132.813 14.5903ZM138.212 76.0216C137.15 75.8349 136.056 75.732 134.936 75.732C125.006 75.732 116.864 83.571 116.388 93.3923H116.369C116.369 100.755 110.377 106.747 103.008 106.747C95.6384 106.747 89.653 100.755 89.653 93.3923H89.6337C89.5886 92.4462 89.4663 91.5258 89.2861 90.6248C88.0311 84.3819 83.6289 79.2717 77.8172 76.9999C75.7255 76.1825 73.4601 75.732 71.0852 75.732C68.7103 75.732 66.5865 76.1567 64.5527 76.9226C58.741 79.1108 54.3131 84.1373 52.9551 90.303C52.7298 91.3006 52.5883 92.3368 52.5368 93.3923H52.511C52.511 100.755 46.5191 106.747 39.1564 106.747C31.7937 106.747 25.8018 100.755 25.8018 93.3923H25.776C25.2998 83.571 17.1647 75.732 7.22759 75.732C6.41022 75.732 5.59929 75.7899 4.80766 75.8929V61.7337C5.59929 61.5857 6.41022 61.5085 7.22759 61.5085C14.5903 61.5085 20.5822 67.4939 20.5822 74.8631H20.608C21.0842 84.678 29.2193 92.5234 39.1564 92.5234C43.4106 92.5234 47.3301 91.0817 50.4644 88.6683C51.7387 87.6836 52.8779 86.5444 53.8626 85.2701C56.1087 82.361 57.5118 78.7697 57.7048 74.8631H57.7242C57.7242 67.4939 63.716 61.5085 71.0852 61.5085C78.4544 61.5085 84.4398 67.4939 84.4398 74.8631H84.4591C84.6587 78.9628 86.1968 82.715 88.6425 85.7013C89.6658 86.9499 90.8436 88.0633 92.1501 89.0094C95.2072 91.2169 98.9594 92.5234 103.008 92.5234C112.945 92.5234 121.08 84.678 121.556 74.8631H121.582C121.582 67.4939 127.574 61.5085 134.936 61.5085C136.05 61.5085 137.144 61.6501 138.212 61.9204V76.0216ZM92.414 82.0456C90.6891 79.7931 89.653 76.9934 89.653 73.9492H89.6337C89.1574 64.1344 81.0159 56.2889 71.0852 56.2889C61.1545 56.2889 53.013 64.1344 52.5368 73.9492H52.511C52.511 76.7553 51.6422 79.3554 50.1619 81.505C46.2424 76.6716 44.067 70.6411 44.067 64.2631C44.067 49.1321 56.379 36.8201 71.51 36.8201C86.6409 36.8201 98.9529 49.1321 98.9529 64.2631C98.9529 70.8921 96.6102 77.1286 92.414 82.0456ZM41.2738 7.92267C42.516 5.9597 44.6463 4.78836 46.9632 4.78836H96.0503C98.3737 4.78836 100.504 5.9597 101.746 7.92267L105.962 14.5903H37.0583L41.2738 7.92267ZM4.80766 24.7785C4.80766 21.805 7.22759 19.3851 10.2074 19.3851H132.813C135.792 19.3851 138.212 21.805 138.212 24.7785V56.5785C137.137 56.3919 136.043 56.2889 134.936 56.2889C125.006 56.2889 116.864 64.1344 116.388 73.9492H116.369C116.369 81.312 110.377 87.3038 103.008 87.3038C100.42 87.3038 98.0068 86.5508 95.9538 85.2701C100.955 79.4777 103.741 72.1085 103.741 64.2631C103.741 46.4934 89.2861 32.0318 71.51 32.0318C53.7339 32.0318 39.2787 46.4934 39.2787 64.2631C39.2787 71.9283 41.956 79.1752 46.7637 84.9161C44.6012 86.4157 41.9818 87.3038 39.1564 87.3038C31.7937 87.3038 25.8018 81.312 25.8018 73.9492H25.776C25.2998 64.1344 17.1647 56.2889 7.22759 56.2889C6.41022 56.2889 5.60572 56.3469 4.80766 56.4498V24.7785Z" fill="white"/>
<path d="M202.171 88.715C194.341 88.715 187.851 87.045 182.711 83.695C177.571 80.345 175.001 76.575 175.001 72.395C175.001 68.215 177.151 66.0249 181.461 66.0249C183.201 66.0249 184.721 66.6049 186.031 67.7749C187.351 68.9449 188.451 70.3449 189.351 71.9949C190.251 73.6349 191.201 75.285 192.221 76.925C193.241 78.575 194.641 79.965 196.441 81.095C198.231 82.235 200.361 82.795 202.811 82.795C205.441 82.795 207.521 82.135 209.041 80.825C210.571 79.515 211.331 77.685 211.331 75.355C211.331 73.025 210.691 71.065 209.401 69.475C208.111 67.895 206.441 66.665 204.381 65.795C202.321 64.935 200.031 64.1549 197.521 63.465C195.011 62.775 192.501 61.975 189.991 61.045C187.481 60.115 185.191 58.985 183.131 57.635C181.071 56.295 179.381 54.345 178.061 51.805C176.741 49.265 176.091 46.225 176.091 42.705C176.091 36.965 178.301 32.305 182.731 28.715C187.151 25.125 193.051 23.335 200.401 23.335C207.751 23.335 213.751 24.965 218.741 28.225C223.731 31.485 226.201 35.205 226.141 39.395C226.141 41.425 225.561 43.025 224.391 44.195C223.221 45.365 221.531 45.945 219.321 45.945C217.351 45.945 215.671 45.365 214.301 44.195C212.921 43.025 211.831 41.645 211.031 40.025C210.221 38.415 209.421 36.785 208.611 35.135C207.801 33.495 206.701 32.085 205.291 30.915C203.881 29.745 202.161 29.165 200.131 29.165C197.441 29.165 195.381 29.895 193.941 31.365C192.511 32.835 191.791 34.725 191.791 37.065C191.791 39.635 192.431 41.805 193.721 43.565C195.011 45.335 196.681 46.685 198.741 47.645C200.801 48.605 203.091 49.455 205.601 50.205C208.111 50.955 210.611 51.775 213.091 52.675C215.571 53.575 217.841 54.665 219.911 55.945C221.971 57.235 223.651 59.0649 224.931 61.465C226.221 63.8549 226.861 66.755 226.861 70.165C226.861 75.845 224.481 80.355 219.731 83.705C214.981 87.055 209.131 88.725 202.201 88.725" fill="white"/>
<path d="M257.231 61.355H260.551C263.361 61.355 265.531 60.185 267.051 57.855C268.571 55.525 269.341 52.625 269.341 49.155C269.341 43.595 268.131 39.065 265.711 35.565C263.291 32.065 260.581 30.315 257.591 30.315H256.331C254.181 30.315 253.101 31.745 253.101 34.615V57.035C253.101 59.905 254.481 61.335 257.231 61.335M235.261 87.815C233.821 87.815 233.111 87.245 233.111 86.115V85.755C233.111 85.035 233.711 83.945 234.901 82.485C236.091 81.025 236.691 79.545 236.691 78.045V33.915C236.691 32.425 236.091 30.945 234.901 29.475C233.701 28.005 233.111 26.915 233.111 26.205V25.845C233.111 24.715 233.831 24.145 235.261 24.145H257.591C266.261 24.145 273.201 25.885 278.401 29.345C283.601 32.815 286.201 38.165 286.201 45.395C286.201 52.155 283.871 57.545 279.211 61.585C274.551 65.625 268.331 67.635 260.551 67.635H253.111V78.045C253.111 79.535 253.781 81.015 255.131 82.485C256.471 83.955 257.151 85.045 257.151 85.755V86.115C257.151 87.255 256.431 87.815 255.001 87.815H235.271H235.261Z" fill="white"/>
<path d="M326.471 81.985C329.701 81.985 332.211 80.845 334.001 78.575C335.791 76.305 336.691 73.165 336.691 69.155C336.691 64.015 335.731 58.405 333.821 52.335C331.901 46.265 329.291 41.015 325.971 36.595C322.651 32.175 319.291 29.955 315.881 29.955C312.711 29.955 310.241 31.095 308.481 33.365C306.721 35.635 305.831 38.865 305.831 43.055C305.831 48.735 306.791 54.585 308.701 60.585C310.611 66.595 313.201 71.665 316.461 75.785C319.721 79.905 323.051 81.975 326.461 81.975M321.811 88.715C313.081 88.715 305.611 85.665 299.391 79.565C293.171 73.465 290.061 65.725 290.061 56.335C290.061 46.465 292.971 38.485 298.801 32.385C304.631 26.285 312.271 23.235 321.711 23.235C330.441 23.235 337.901 26.385 344.091 32.695C350.281 39.005 353.371 46.905 353.371 56.415C353.371 65.925 350.331 73.755 344.271 79.735C338.201 85.715 330.711 88.705 321.801 88.705" fill="white"/>
<path d="M373.111 87.815C371.731 87.815 371.051 87.245 371.051 86.115V85.755C371.051 85.035 371.691 83.945 372.981 82.485C374.261 81.025 374.911 79.545 374.911 78.045V30.865H370.161C368.781 30.865 367.541 31.435 366.441 32.565C365.331 33.705 364.471 34.945 363.841 36.285C363.211 37.625 362.451 38.875 361.551 40.005C360.651 41.145 359.761 41.715 358.861 41.715H357.341C355.661 41.715 354.921 40.845 355.101 39.115L356.891 26.915C357.071 25.065 358.091 24.135 359.941 24.135H406.041C407.831 24.135 408.851 25.065 409.091 26.915L410.971 39.205C411.091 39.985 410.941 40.595 410.521 41.045C410.101 41.495 409.501 41.715 408.731 41.715H407.211C406.311 41.715 405.421 41.145 404.521 40.005C403.621 38.875 402.841 37.625 402.191 36.285C401.531 34.935 400.631 33.695 399.501 32.565C398.361 31.425 397.111 30.865 395.731 30.865H391.061V78.045C391.061 79.535 391.701 81.015 392.991 82.485C394.271 83.955 394.921 85.045 394.921 85.755V86.115C394.921 87.255 394.201 87.815 392.771 87.815H373.131H373.111Z" fill="white"/>
<path d="M430.601 87.815C429.221 87.815 428.541 87.245 428.541 86.115V85.755C428.541 85.035 429.181 83.945 430.471 82.485C431.751 81.025 432.401 79.545 432.401 78.045V30.865H427.651C426.271 30.865 425.031 31.435 423.931 32.565C422.821 33.705 421.961 34.945 421.331 36.285C420.701 37.625 419.941 38.875 419.041 40.005C418.141 41.145 417.251 41.715 416.351 41.715H414.831C413.151 41.715 412.411 40.845 412.591 39.115L414.381 26.915C414.561 25.065 415.581 24.135 417.431 24.135H463.531C465.321 24.135 466.341 25.065 466.581 26.915L468.461 39.205C468.581 39.985 468.431 40.595 468.011 41.045C467.591 41.495 466.991 41.715 466.221 41.715H464.701C463.801 41.715 462.911 41.145 462.011 40.005C461.111 38.875 460.331 37.625 459.681 36.285C459.021 34.935 458.121 33.695 456.991 32.565C455.851 31.425 454.601 30.865 453.221 30.865H448.551V78.045C448.551 79.535 449.191 81.015 450.481 82.485C451.761 83.955 452.411 85.045 452.411 85.755V86.115C452.411 87.255 451.691 87.815 450.261 87.815H430.621H430.601Z" fill="white"/>
<path d="M475.091 87.815C473.651 87.815 472.941 87.245 472.941 86.115V85.755C472.941 85.035 473.541 83.945 474.731 82.485C475.921 81.025 476.521 79.515 476.521 77.955V34.005C476.521 32.455 475.921 30.945 474.731 29.475C473.531 28.005 472.941 26.915 472.941 26.205V25.845C472.941 24.715 473.631 24.145 475.001 24.145H516.081C517.041 24.145 517.741 24.355 518.191 24.775C518.641 25.195 518.951 25.915 519.131 26.925L521.281 38.225C521.401 39.005 521.251 39.635 520.831 40.105C520.411 40.585 519.811 40.825 519.041 40.825H518.591C517.451 40.825 516.301 40.275 515.141 39.165C513.971 38.055 512.961 36.865 512.091 35.575C511.221 34.285 510.121 33.095 508.771 31.985C507.421 30.875 506.031 30.325 504.601 30.325H496.711C494.021 30.325 492.671 31.795 492.671 34.725V52.305H502.091C503.171 52.305 504.121 51.935 504.961 51.185C505.801 50.435 506.421 49.615 506.841 48.715C507.261 47.815 507.751 46.995 508.321 46.245C508.891 45.495 509.441 45.125 509.981 45.125H510.701C511.901 45.125 512.491 45.815 512.491 47.185V63.325C512.491 64.705 511.891 65.385 510.701 65.385H509.981C509.441 65.385 508.891 65.025 508.321 64.305C507.751 63.585 507.261 62.815 506.841 61.975C506.421 61.135 505.791 60.365 504.961 59.645C504.121 58.925 503.171 58.565 502.091 58.565H492.671V75.065C492.671 76.855 493.091 78.395 493.931 79.685C494.771 80.975 496.141 81.615 498.051 81.615H507.471C508.911 81.615 510.241 81.035 511.461 79.865C512.691 78.695 513.691 77.425 514.471 76.055C515.251 74.675 516.191 73.405 517.301 72.245C518.411 71.075 519.561 70.495 520.751 70.495H521.561C522.221 70.495 522.731 70.785 523.081 71.345C523.441 71.915 523.561 72.525 523.441 73.185L521.471 84.935C521.291 85.955 520.981 86.685 520.531 87.135C520.081 87.585 519.351 87.805 518.331 87.805H475.101L475.091 87.815Z" fill="white"/>
<path d="M556.171 81.545H559.761C564.181 81.545 567.771 80.025 570.521 76.965C573.271 73.915 574.651 69.555 574.651 63.875C574.651 58.195 573.751 52.615 571.961 47.505C570.171 42.395 567.621 38.265 564.341 35.125C561.051 31.985 557.401 30.415 553.401 30.415H552.411C549.721 30.415 548.371 31.845 548.371 34.715V72.295C548.371 75.225 549.061 77.495 550.431 79.115C551.811 80.725 553.721 81.535 556.171 81.535M530.881 87.815C529.441 87.815 528.731 87.245 528.731 86.115V85.755C528.731 85.035 529.331 83.945 530.521 82.485C531.711 81.025 532.311 79.545 532.311 78.045V33.915C532.311 32.425 531.711 30.945 530.521 29.475C529.321 28.005 528.731 26.915 528.731 26.205V25.845C528.731 24.715 529.451 24.145 530.881 24.145H552.051C564.551 24.145 574.281 27.105 581.241 33.025C588.201 38.945 591.691 46.715 591.691 56.345C591.691 65.975 588.481 73.325 582.051 79.125C575.621 84.925 567.121 87.825 556.531 87.825H530.881V87.815Z" fill="white"/>
</svg>
